# xmcd
#
# Track frame offsets: 
#        150
#        10207
#        24574
#        35386
#        52471
#        67894
#        85106
#        100394
#        110130
#        127130
#        139445
#        150973
#
# Disc length: 2706 seconds
#
# Revision: 1
# Processed by: cddbd v1.5.2PL0 Copyright (c) Steve Scherf et al.
# Submitted via: ExactAudioCopy v0.99pb5
#
DISCID=a60a900c
DTITLE=Shovels, The - Dig it!
DYEAR=2007
DGENRE=Dwalm
TTITLE0=Business Man
TTITLE1=Better Man
TTITLE2=Kinksize Canary
TTITLE3=Four Leaf Clover
TTITLE4=Emily
TTITLE5=Mrs. More
TTITLE6=Still Okay
TTITLE7=The Whole Wide World
TTITLE8=Not In A Buying Mood
TTITLE9=Lonesome Highway
TTITLE10=Late
TTITLE11=When The Sun Goes Down
EXTD=
EXTT0=
EXTT1=
EXTT2=
EXTT3=
EXTT4=
EXTT5=
EXTT6=
EXTT7=
EXTT8=
EXTT9=
EXTT10=
EXTT11=
PLAYORDER=
